<svg xmlns="http://www.w3.org/2000/svg" width="48" height="48" viewBox="0 0 48 48" fill="none">
  <!-- Outer nacelle ring -->
  <circle cx="24" cy="24" r="22" stroke="#34d399" stroke-width="2.5" fill="#0a0a0a"/>
  <!-- Inner hub -->
  <circle cx="24" cy="24" r="5" fill="#34d399"/>
  <!-- Fan blades (8 blades, slightly curved feel via rotation) -->
  <g fill="#34d399" opacity="0.85">
    <path d="M24 19 L22.2 7.5 Q24 6 25.8 7.5 Z"/>
    <path d="M29 21 L38.5 12.5 Q39.5 14.5 37.5 16 Z"/>
    <path d="M29 24 L40.5 22.2 Q42 24 40.5 25.8 Z"/>
    <path d="M29 27 L37.5 32 Q39.5 33.5 38.5 35.5 Z"/>
    <path d="M24 29 L25.8 40.5 Q24 42 22.2 40.5 Z"/>
    <path d="M19 27 L9.5 35.5 Q8.5 33.5 10.5 32 Z"/>
    <path d="M19 24 L7.5 25.8 Q6 24 7.5 22.2 Z"/>
    <path d="M19 21 L10.5 16 Q8.5 14.5 9.5 12.5 Z"/>
  </g>
  <!-- Subtle inner ring -->
  <circle cx="24" cy="24" r="14" stroke="#34d399" stroke-width="0.75" fill="none" opacity="0.3"/>
</svg>
